Patient4_TMGait_0pt8_01_right_40_EMG.mot
version=1
nRows=37
nColumns=33
inDegrees=no
endheader
time	1LAddLong	2LGlutMax	3LGlutMed	4LIliopsoas	5LSemiMemb	6LBicFemLong	7LRecFem	8LVastMed	9LVastLat	10LGasMed	11LTibAnt	12lTibPost	13LPeroneusLong	14LSol	15LExtDigLong	16LFlexDigLong	17RAddLong	18RGlutMax	19RGlutMed	20RIliopsoas	21RSemiMemb	22RBicFemLong	23RRecFem	24RVastMed	25RVastLat	26RGasMed	27RTibAnt	28RTibPost	29RPeroneusLong	30RSol	31RExtDigLong	32RFlexDigLong
45.277	-0.018311	-0.76767	0.040741	0.01236	0.000763	0.070648	0.45273	0.005951	-0.014191	-0.01709	0.11841	-0.005646	-0.14816	-0.03006	-0.42129	0.015869	0.042114	-0.20584	0.40207	-0.035095	0.046692	-0.47119	0.45441	-0.10376	-0.10132	0.03952	0.12543	-1.0727	-0.51407	0.18341	-0.001526	0.00061
45.278	-0.029602	-0.74326	0.080261	0.010223	0.002136	0.053101	0.47119	0.001831	-0.02121	-0.010376	0.10971	-0.003357	-0.003815	-0.15808	-0.34027	0.015717	0.06012	-0.36652	0.10803	-0.31311	-0.04715	-0.50217	0.4451	-0.20676	-0.038605	-0.041656	0.56808	0.45471	0.084076	0.35919	0	-0.011292
45.279	-0.025635	-0.69763	0.13138	0.013733	0.004578	0.04364	0.43442	0.013275	-0.001526	-0.007324	-0.43778	0.001373	0.048981	-0.056763	0.36865	0.015106	0.06424	-0.31586	0.48813	-0.46982	0.075226	-0.53635	0.53421	-0.18143	-0.063934	-0.14801	0.98251	0.72281	0.6839	0.43182	-0.006714	-0.011139
45.28	-0.028381	-0.73257	0.13062	0.004272	-0.001373	0.038147	0.36774	0.020905	-0.019226	-0.015106	-0.32105	-0.003967	-0.028839	0.15472	0.45242	0.0177	0.080414	-0.19943	-0.066681	-0.21576	0.25497	-0.49057	0.53085	-0.14481	-0.084991	-0.16556	1.2277	0.5365	1.0164	0.16144	-0.002899	-0.009155
45.281	-0.027618	-0.71472	0.12039	0.000153	0.000305	0.034027	0.2832	0.01236	-0.023041	0.014191	0.013885	-0.010529	-0.15243	0.10544	0.34515	0.011139	0.1059	-0.14435	-0.32257	-0.015106	0.12421	-0.34637	0.38437	-0.043488	-0.012817	0.020142	0.72296	0.21118	0.93277	0.37216	-0.007935	0.003204
45.282	-0.017242	-0.65872	0.11704	0.006409	-0.00061	0.021362	0.14893	0.003967	-0.020599	0.021057	0.23346	-0.0177	-0.053101	-0.14923	-0.50446	0.016785	0.052795	-0.14572	-0.12131	0.14725	0.048523	-0.22751	0.19653	0.015717	0.094604	0.20432	-0.90576	0.41718	1.1992	0.18692	-0.010071	0.013733
45.283	-0.019989	-0.64407	0.13825	0.009003	-0.003967	0.011749	0.12787	0.012512	-0.05188	0.010834	0.16266	-0.019073	-0.097656	-0.2124	-0.21469	0.008087	-0.007324	-0.19516	-0.26993	0.27206	-0.20599	-0.064545	0.24262	0.083313	0.051575	0.21942	-1.3243	0.18951	0.81818	-0.19867	-0.001068	0.018463
45.284	-0.021973	-0.53268	0.159	0.005035	-0.001678	0.018768	0.18295	0.013275	-0.054779	0.02121	-0.039978	-0.011749	-0.13168	-0.066376	-0.18265	0.014496	-0.12039	-0.15839	-0.13199	0.089111	0.019226	0.30441	0.28656	0.13306	-0.010834	0.15884	-1.2289	-0.10651	0.4335	0.080566	-0.003662	0.012054
45.285	-0.016022	-0.49454	0.14069	0.031891	-0.005951	0.026093	0.24033	0.01709	-0.062561	0.025024	-0.31342	-0.010986	-0.10574	-0.21881	-0.3865	0.012817	-0.13031	-0.17517	-0.37155	0.063934	0.049133	0.34531	0.34363	0.20721	-0.037842	0.093994	-1.0281	-0.050507	0.36545	0.41046	-0.001831	0.009918
45.286	-0.010681	-0.40131	0.15457	0.005951	-0.006714	0.027924	0.29907	0.024261	-0.053711	0.023499	-0.025787	-0.00412	-0.055847	-0.1889	-0.11398	0.012817	-0.064697	-0.14084	-0.55557	0.049591	0.18219	0.3122	0.44495	0.13702	-0.056152	0.048523	-0.79025	0.11124	0.42679	0.29159	-0.001068	-0.001068
45.287	-0.003204	-0.3627	0.15747	-0.023804	0.002747	0.02533	0.345	0.016479	-0.063782	-0.000916	-0.12405	-0.012665	-0.018463	-0.01709	0.098267	0.009155	-0.034637	-0.13397	-0.23483	0.014648	-0.15533	0.13489	0.60547	0.04715	-0.058441	0.044708	-0.64529	0.013428	0.46143	0.087433	-0.003357	0.002136
45.288	0.003357	-0.2832	0.18692	-0.003204	0.007782	0.01236	0.31693	0.011902	-0.079041	0.014343	-0.070496	-0.019684	-0.081787	0.056	0.26276	0.020599	-0.029755	-0.016479	-0.11276	-0.050049	-0.32272	-0.05722	0.61706	0.063019	-0.10376	0.048981	-0.72891	-0.04425	0.51529	0.11841	-0.003967	-0.009155
45.289	-0.001678	-0.2742	0.18951	0.013733	-0.001373	0.02655	0.25696	0.016327	-0.10605	0.030365	0.054474	-0.016937	-0.092621	0.097504	0.30868	0.020905	-0.03952	0.076447	-0.37247	-0.067139	0.020905	-0.1178	0.49927	0.063782	-0.10071	0.031281	-0.2803	-0.08316	0.32227	0.44525	-0.000305	-0.018616
45.29	-0.022888	-0.20981	0.18204	-0.005646	0.005035	0.037994	0.18951	0.005493	-0.11444	0.027618	0.095062	-0.019379	-0.095673	0.16724	0.10162	0.0177	-0.003052	0.23025	-0.74631	-0.047607	0.30807	0.004883	0.29938	-0.052795	-0.13825	0.012817	0.1387	-0.094452	0.14572	0.63675	-0.002594	-0.013885
45.291	-0.005798	-0.18936	0.23407	-0.013733	0.000763	0.019073	0.18906	0.014191	-0.10223	0.010071	0.050507	-0.016327	-0.084229	0.16647	0.35812	0.023346	0.007172	0.27542	-1.2607	-0.10346	0.23224	-0.028687	-0.11154	-0.1384	-0.12329	0.041656	0.51453	-0.092316	0.065613	0.85938	0	-0.020599
45.292	-0.005493	-0.11566	0.24674	-0.000763	0.001678	0.0354	0.18677	0.014191	-0.089264	0.028687	0.039368	-0.012817	-0.10162	0.046844	0.1265	0.016632	0.037384	0.29511	-0.77072	-0.15259	0.1239	0.15854	-0.078125	-0.021515	-0.12192	0.087738	0.39795	-0.086823	0.056458	0.45441	0.000458	-0.014954
45.293	-0.006866	-0.092163	0.15625	0.016174	0.006256	0.035248	0.079803	0.005951	-0.098419	0.03891	0.034332	-0.01709	-0.1178	0.001831	0.23163	0.008392	0.028076	0.30563	-0.11932	-0.13916	0.011292	0.47424	0.045471	0.97534	-0.16296	0.09079	0.22842	-0.082245	-0.056152	0.02243	-0.001984	-0.01297
45.294	0.00885	-0.008087	0.12817	0.009766	-0.003815	0.048981	0.059357	0.013275	-0.10513	0.043335	0.010986	-0.014343	-0.095215	0.011597	0.018463	0.008087	-0.065613	0.37323	0.89172	-0.056763	-0.27817	0.79895	0.08255	1.3489	-0.17197	0.033569	0.04715	-0.084076	-0.088806	-0.25665	-0.001373	-0.028687
45.295	0.001831	0.060425	0.16129	-0.003662	0.000763	0.0383	0.056458	0.018463	-0.092621	0.048523	-0.065613	-0.028839	-0.0737	-0.04425	-0.15915	0.015411	-0.097504	0.44205	0.68466	0.072327	-0.49301	0.91766	0.13031	0.81329	-0.040588	-0.018311	0.11627	-0.079193	-0.32394	-0.32379	-0.002441	-0.036011
45.296	-0.007172	0.14313	0.17761	-0.010071	0.006104	0.014496	0.1355	0.013885	-0.070038	0.065918	-0.087891	-0.023956	-0.066071	-0.029297	0.48523	-0.00946	-0.10681	0.44037	-0.31632	0.23285	-0.11658	0.60623	0.037079	0.2945	0.32791	0.021057	0.27924	-0.073242	-0.41382	-0.083466	-0.003815	-0.023956
45.297	0.006409	0.21469	0.13336	0.005035	0.006714	0.019531	0.17853	0.011749	-0.046692	0.058289	0.14038	-0.016785	-0.032654	0.037537	0.19012	0.036469	-0.10513	0.25375	-0.75577	0.177	0.29007	0.38879	0.13504	-0.2095	0.3627	0.035095	0.10162	-0.056305	-0.030823	0.42816	-0.005188	-0.0177
45.298	0.012665	0.28793	0.10437	-0.010681	0.00412	0.011292	0.21866	0.019836	-0.064392	0.055084	0.28153	-0.021362	-0.063324	0.080719	-0.30334	0.038452	-0.065308	0.08316	-0.94818	0.1648	0.44098	0.13184	0.12497	-0.46753	0.24872	-0.029907	0.14801	-0.057831	0.079956	0.41489	-0.000916	-0.015259
45.299	0.013275	0.40909	0.096588	-0.011292	0.009155	-0.012512	0.2507	0.006104	-0.060577	0.053101	0.15427	-0.023041	-0.12756	0.14603	-0.16937	0.024719	-0.029144	0.10544	-0.40482	0.11902	0.19867	-0.29999	-0.00351	-0.33951	0.1947	-0.05249	0.087585	-0.044708	0.15549	-0.14725	-0.001678	-0.004578
45.3	-0.030365	0.48981	0.12817	-0.02243	0.013733	-0.023193	0.30899	0.003967	-0.097656	0.035095	-0.02243	-0.019073	-0.098419	0.095825	-0.03067	0.025787	-0.033875	0.084839	0.2153	0.001526	0.11749	-0.699	-0.34653	-0.092926	0.22766	-0.006714	-0.058441	-0.054474	0.298	-0.18021	-0.001831	-0.011139
45.301	-0.005493	0.5249	0.10925	-0.017548	0.011749	-0.029144	0.34195	0.013885	-0.095215	0.034332	-0.17303	0.01236	-0.047302	0.091248	-0.27145	0.019836	0.007019	-0.17883	-0.38605	-0.011139	-0.055389	-0.93231	-0.18112	-0.010681	0.040588	0.065918	-0.014648	-0.090637	0.38162	-0.20294	0.000763	-0.014496
45.302	0.000916	0.56992	0.09964	-0.009918	0.010986	-0.022888	0.39032	0.018921	-0.092468	0.061188	-0.15411	0.040436	-0.07431	0.073547	-0.033569	0.024261	0.028992	-0.24353	-0.33417	-0.036011	0.066833	-1.1682	-0.055847	0.14999	-0.37796	-0.031891	0.013123	-0.081177	0.27115	-0.32059	0.001526	-0.016785
45.303	-0.017853	0.72113	0.054474	-0.012817	0.015869	-0.046997	0.40985	0.015106	-0.081177	0.054779	0.21423	-0.014343	-0.10727	0.015259	0.65079	0.033569	0.03067	-0.28442	-0.74478	0.002441	0.11932	-0.97809	0.039368	0.055389	-0.3891	-0.080109	0.31387	0.023041	0.018768	-0.1828	0.001373	-0.013275
45.304	-0.012054	0.76004	0.073547	-0.02533	0.014191	-0.053253	0.26703	0.009308	-0.066986	-0.010071	0.33737	-0.014343	-0.007782	0.083313	0.37674	0.032501	0.032959	-0.44281	-0.83237	0.072479	0.09903	-0.69061	0.21072	-0.069733	-0.38055	-0.14328	0.61279	0.026855	0.038147	-0.23743	-0.000458	-0.010834
45.305	-0.01358	0.83405	0.058746	-0.014343	0.010529	-0.066376	0.14801	0.014954	-0.079346	-0.048065	-0.19073	-0.012817	0.10803	0.21927	0.38574	0.036621	-0.041351	-0.65063	-0.40832	0.068817	0.05661	-0.41855	0.14145	-0.083618	-0.1944	-0.13306	0.58472	0.011749	0.036926	-0.23621	-0.00351	-0.016632
45.306	-0.016327	0.87677	0.014801	0.018921	0.017242	-0.058136	0.19943	0.006256	-0.079651	0.032959	-0.082092	-0.010834	-0.10147	0.23315	-0.24719	0.011749	-0.040588	-0.79498	0.041351	0.027924	0.062103	-0.34912	0.19073	-0.047607	-0.20798	-0.15732	0.47318	0.004425	-0.24246	-0.4509	-0.004883	-0.021362
45.307	-0.006866	0.97076	0.00061	0.032349	0.012512	-0.054016	0.21255	0.011902	-0.086365	0.079956	-0.2626	-0.005646	-0.1471	0.17777	-0.625	0.007629	-0.011292	-0.9494	0.061798	-0.025177	0.054932	-0.080872	0.12695	0.062256	-0.14862	-0.081482	0.57816	0.015869	-0.52902	-0.85236	-0.001068	-0.028381
45.308	-0.011292	1.0588	-0.012054	0.036316	0.013885	-0.070496	0.2417	0.005341	-0.087585	0.03479	-0.22308	0.002899	-0.028839	0.14679	-0.45776	-0.013275	-0.018921	-1.0312	-0.23544	-0.045929	-0.039063	0.06073	0.016785	0.13062	-0.068054	-0.10681	-0.4216	-0.014343	-0.13397	-0.43304	-0.003357	-0.011292
45.309	-0.000916	1.1392	-0.027466	0.007324	0.016022	-0.047607	0.11337	0.002441	-0.087128	0.018463	-0.22797	0.005341	0.024261	0.15854	-0.47028	-0.007782	-0.013428	-1.2927	-0.58273	-0.016937	-0.063782	0.12604	0.011597	0.19562	-0.048523	-0.035553	-0.64682	0.005035	-0.11856	0.26382	-0.008392	-0.007324
45.31	-0.00473	1.2231	-0.06134	-0.031738	0.013428	-0.018616	0.037079	0.007324	-0.061646	0.039063	-0.22201	0.006561	-0.073395	0.01709	-0.36987	-0.001068	-0.030975	-1.4992	-0.99548	0.066223	-0.046539	0.20874	-0.042419	0.26138	0.013733	0.083008	-0.17944	-0.23514	-0.42709	0.13657	-0.003815	-0.011597
45.311	-0.000305	1.2529	-0.05127	-0.00946	0.018768	-0.035858	0.020294	0.006714	-0.057678	0.068359	-0.24231	0.016632	-0.090485	-0.05661	0.052032	0.006561	-0.026093	-1.5933	-0.84717	0.11246	0.076294	-0.11948	-0.11963	0.17914	0.033264	0.15625	0.36026	-0.015717	-0.3772	-0.58975	-0.003815	-0.006409
45.312	0.000763	1.3966	-0.058746	-0.018616	0.008392	-0.047913	-0.1207	0.006561	-0.059052	0.078125	-0.15991	0.015869	-0.10803	-0.13107	0.39673	-0.000305	0.00061	-1.4366	-0.35141	0.09903	0.069427	-0.27084	0.019684	0.12695	0.011444	0.062408	0.73791	0.16846	-0.27527	0.29083	-0.001678	0.00061
45.313	0.007477	1.4989	-0.070038	-0.010834	0.011444	-0.044861	-0.13809	-0.001068	-0.045776	0.072174	-0.13153	0.018616	-0.078583	-0.02655	0.054016	0.015259	0.024567	-1.3274	-0.25375	0.0914	0.010529	-0.19424	0.15137	0.038757	-0.014191	0.041046	-0.29388	0.10696	0.056915	0.64957	-0.002747	0.009003
